<svg xmlns="http://www.w3.org/2000/svg" width="24.004" height="24.057" viewBox="0 0 24.004 24.057">
  <path id="Union_1980" data-name="Union 1980" d="M18362.2,20343.057h-3.451v-.016c-.338,0-.674.006-1.006.006-.408,0-.832.006-1.256.006-.623,0-1.145-.006-1.623-.016a10.4,10.4,0,0,1-3.84-.771,6.11,6.11,0,0,1-3.549-4.084,10.873,10.873,0,0,1-.459-3.008c-.02-2.971-.02-5.687,0-8.3a10.594,10.594,0,0,1,.551-3.277,6.154,6.154,0,0,1,4.3-4.121,10.865,10.865,0,0,1,3.049-.459c1.48-.01,2.844-.016,4.16-.016,1.4,0,2.762.006,4.049.016a10.294,10.294,0,0,1,3.549.639,6.131,6.131,0,0,1,3.854,4.227,11.718,11.718,0,0,1,.471,3.264c.01,2.209.016,5.119-.01,8.02a10.69,10.69,0,0,1-.49,3.1,6.2,6.2,0,0,1-4.523,4.355,13.708,13.708,0,0,1-3.717.434Zm-13.061-10.895c0,.822,0,1.674,0,2.512a10.794,10.794,0,0,0,.313,2.66,4.112,4.112,0,0,0,2.844,3.141,8.765,8.765,0,0,0,2.645.418c1.895.016,3.814.016,5.672.016h1.859a10.68,10.68,0,0,0,3.006-.363,4.079,4.079,0,0,0,2.992-2.93,8.827,8.827,0,0,0,.377-2.482c.021-2.578.016-5.2.012-7.729v-.184a10.22,10.22,0,0,0-.307-2.508,4.1,4.1,0,0,0-3.145-3.217,10.911,10.911,0,0,0-2.35-.33c-1.393-.027-2.787-.031-3.85-.031s-2.1,0-3.16,0h-.52a11.475,11.475,0,0,0-2.814.313,4.138,4.138,0,0,0-3.205,3.053,9.073,9.073,0,0,0-.354,2.441c-.016.953-.01,1.924-.01,2.863,0,.408.006.813.006,1.221v.25h-.012Zm4.5,2.635a1.015,1.015,0,0,1-.807-.945,1.261,1.261,0,0,1,.215-.75c.943-1.266,1.8-2.379,2.613-3.4a2.087,2.087,0,0,1,1.67-.838,2.313,2.313,0,0,1,1.4.494c.408.316.822.645,1.221.961.209.168.424.336.633.5a.908.908,0,0,0,.133.092,1.094,1.094,0,0,0,.1-.117q1.219-1.57,2.436-3.145a1.055,1.055,0,0,1,1.113-.4,1,1,0,0,1,.8.924,1.285,1.285,0,0,1-.215.756c-.775,1.035-1.619,2.129-2.572,3.334a2.081,2.081,0,0,1-1.717.781h-.035a2.12,2.12,0,0,1-1.328-.516c-.6-.48-1.209-.955-1.791-1.414a.929.929,0,0,0-.158-.107c-.016.02-.051.055-.117.137l-.25.328c-.74.959-1.5,1.949-2.252,2.93a1.01,1.01,0,0,1-.822.43A1.308,1.308,0,0,1,18353.643,20334.8Z" transform="translate(-18347 -20319)" fill="#06090f"/>
</svg>
