<svg xmlns="http://www.w3.org/2000/svg" width="23.535" height="23.647" viewBox="0 0 23.535 23.647">
  <path id="Path_41510" data-name="Path 41510" d="M540.16,74.991a1.911,1.911,0,0,1,1.334.54l9.848,9.544a1.934,1.934,0,0,1,.586,1.385v9.069a3.14,3.14,0,0,1-3.162,3.11h-6.4a1.926,1.926,0,0,1-1.921-1.926V91.757c0-.069-.112-.173-.282-.173s-.282.1-.282.173v4.955a1.926,1.926,0,0,1-1.921,1.926h-6.4a3.14,3.14,0,0,1-3.162-3.11V86.46a1.934,1.934,0,0,1,.588-1.386l9.845-9.541A1.908,1.908,0,0,1,540.16,74.991ZM549.428,86.7,540.16,77.72,530.893,86.7v8.827a.638.638,0,0,0,.662.61h5.823V91.757a2.784,2.784,0,0,1,5.564,0v4.381h5.822a.638.638,0,0,0,.662-.61Z" transform="translate(-528.393 -74.991)" fill="#06090f"/>
</svg>
