<svg xmlns="http://www.w3.org/2000/svg" width="24.346" height="22.449" viewBox="0 0 24.346 22.449">
  <g id="Group_41511" data-name="Group 41511" transform="translate(0 0)">
    <g id="Group_18195" data-name="Group 18195" transform="translate(0 0)">
      <path id="Rectangle_6732" data-name="Rectangle 6732" d="M4.565,1.978A2.59,2.59,0,0,0,1.978,4.565V16.028a2.59,2.59,0,0,0,2.587,2.587H19.781a2.59,2.59,0,0,0,2.587-2.587V4.565a2.59,2.59,0,0,0-2.587-2.587H4.565M4.565,0H19.781a4.565,4.565,0,0,1,4.565,4.565V16.028a4.565,4.565,0,0,1-4.565,4.565H4.565A4.565,4.565,0,0,1,0,16.028V4.565A4.565,4.565,0,0,1,4.565,0Z" transform="translate(0 1.856)" fill="#06090f"/>
      <path id="Path_15182" data-name="Path 15182" d="M15848.265,11814.562a.99.99,0,0,1-.992-.991v-3.47a.99.99,0,0,1,1.979,0v3.47A.989.989,0,0,1,15848.265,11814.562Z" transform="translate(-15842.498 -11809.111)" fill="#06090f"/>
      <path id="Path_15183" data-name="Path 15183" d="M15848.265,11814.562a.99.99,0,0,1-.992-.991v-3.47a.99.99,0,0,1,1.979,0v3.47A.989.989,0,0,1,15848.265,11814.562Z" transform="translate(-15829.834 -11809.111)" fill="#06090f"/>
      <path id="Path_15184" data-name="Path 15184" d="M.989,3.9A.989.989,0,0,1,0,2.906V.989a.989.989,0,0,1,1.978,0V2.906A.989.989,0,0,1,.989,3.9Z" transform="translate(4.473 10.72) rotate(-90)" fill="#06090f"/>
      <path id="Path_15188" data-name="Path 15188" d="M.989,3.9A.989.989,0,0,1,0,2.906V.989a.989.989,0,0,1,1.978,0V2.906A.989.989,0,0,1,.989,3.9Z" transform="translate(4.473 16.633) rotate(-90)" fill="#06090f"/>
      <path id="Path_15185" data-name="Path 15185" d="M.989,3.9A.989.989,0,0,1,0,2.906V.989a.989.989,0,0,1,1.978,0V2.906A.989.989,0,0,1,.989,3.9Z" transform="translate(10.294 10.72) rotate(-90)" fill="#06090f"/>
      <path id="Path_15187" data-name="Path 15187" d="M.989,3.9A.989.989,0,0,1,0,2.906V.989a.989.989,0,0,1,1.978,0V2.906A.989.989,0,0,1,.989,3.9Z" transform="translate(10.294 16.633) rotate(-90)" fill="#06090f"/>
      <path id="Path_15186" data-name="Path 15186" d="M.989,3.9A.989.989,0,0,1,0,2.906V.989a.989.989,0,0,1,1.978,0V2.906A.989.989,0,0,1,.989,3.9Z" transform="translate(15.977 10.72) rotate(-90)" fill="#06090f"/>
      <path id="Path_15189" data-name="Path 15189" d="M.989,3.9A.989.989,0,0,1,0,2.906V.989a.989.989,0,0,1,1.978,0V2.906A.989.989,0,0,1,.989,3.9Z" transform="translate(15.977 16.633) rotate(-90)" fill="#06090f"/>
    </g>
  </g>
</svg>
