<svg xmlns="http://www.w3.org/2000/svg" width="17.699" height="16.4" viewBox="0 0 17.699 16.4">
  <path id="Union_1985" data-name="Union 1985" d="M12400.32,23709.4a3.348,3.348,0,0,1-3.318-3.385v-8.5a3.347,3.347,0,0,1,3.318-3.383h.2v-.533a.6.6,0,1,1,1.2,0v.533h8.133v-.533a.6.6,0,0,1,1.209,0v.533h.313a3.349,3.349,0,0,1,3.321,3.383v8.5a3.351,3.351,0,0,1-3.321,3.385Zm-1.88-3.385a1.9,1.9,0,0,0,1.88,1.922h11.06a1.9,1.9,0,0,0,1.881-1.922v-7.021h-14.82Zm0-8.5v.268h14.82v-.268a1.9,1.9,0,0,0-1.881-1.916h-.312v.123a.6.6,0,1,1-1.209,0v-.123h-8.133v.123a.6.6,0,1,1-1.2,0v-.123h-.2A1.9,1.9,0,0,0,12398.44,23697.52Zm6.875,8.025a.607.607,0,0,1,0-1.215h1.169a.607.607,0,0,1,0,1.215Zm-4.362,0a.607.607,0,0,1,0-1.215h1.169a.607.607,0,0,1,0,1.215Zm8.626-3.439a.6.6,0,0,1,0-1.209h1.168a.6.6,0,0,1,0,1.209Zm-4.264,0a.6.6,0,0,1,0-1.209h1.169a.6.6,0,0,1,0,1.209Zm-4.362,0a.6.6,0,0,1,0-1.209h1.169a.6.6,0,0,1,0,1.209Z" transform="translate(-12397.002 -23693)" fill="#fff"/>
</svg>
