<svg id="Group_47202" data-name="Group 47202" xmlns="http://www.w3.org/2000/svg" xmlns:xlink="http://www.w3.org/1999/xlink" width="22.037" height="22.071" viewBox="0 0 22.037 22.071">
  <defs>
    <clipPath id="clip-path">
      <rect id="Rectangle_30520" data-name="Rectangle 30520" width="22.037" height="22.071" fill="#e6eaf4"/>
    </clipPath>
  </defs>
  <g id="Group_47201" data-name="Group 47201" clip-path="url(#clip-path)">
    <path id="Path_78647" data-name="Path 78647" d="M11.016,22.07a11.725,11.725,0,0,1-5.138-1.318.514.514,0,0,0-.348-.031c-1.393.408-2.78.834-4.176,1.234a1.3,1.3,0,0,1-.683,0,.968.968,0,0,1-.612-1.265c.229-.779.464-1.555.7-2.333.186-.621.377-1.239.551-1.863a.521.521,0,0,0-.033-.348,11.014,11.014,0,1,1,11.742,5.694c-.659.118-1.333.154-2,.228M2.5,19.52c.089-.021.133-.03.176-.043.9-.271,1.812-.532,2.712-.817a1.276,1.276,0,0,1,1.1.126,8.858,8.858,0,0,0,6.072,1.1A9,9,0,1,0,3.2,15.477a1.429,1.429,0,0,1,.139,1.247c-.3.911-.556,1.835-.844,2.8" transform="translate(0.001 0.001)" fill="#e6eaf4"/>
  </g>
</svg>
