<svg xmlns="http://www.w3.org/2000/svg" width="8.835" height="10.321" viewBox="0 0 8.835 10.321">
  <g id="clipboard" transform="translate(-3.646 -1.636)">
    <path id="Path_121" data-name="Path 121" d="M12.413,4.088a1.6,1.6,0,0,0-1.544-1.1H9.476V2.33a.337.337,0,0,0-.345-.323h0q-.848,0-1.7,0h0a.329.329,0,0,0-.338.309h0v.671H5.7A1.594,1.594,0,0,0,4.159,4.077l0,.01A1.477,1.477,0,0,0,4.1,4.5h0v6a1.094,1.094,0,0,0,.051.306l0-.008,0,.017a1.5,1.5,0,0,0,.653.853l.006,0,.1.057a1.583,1.583,0,0,0,.4.147l.011,0a1.349,1.349,0,0,0,.133.025h.007l.039.005.032,0a.872.872,0,0,0,.118.007h5.34a.527.527,0,0,0,.117-.016h0a1.755,1.755,0,0,0,1.326-1.132l0-.012a.8.8,0,0,0,.038-.242V4.5a1.524,1.524,0,0,0-.061-.422l0,.011ZM7.8,3.305V2.667h.96l.01,1.051c0,.021,0,.047,0,.071a.788.788,0,0,1-.075.336l0-.005a.472.472,0,0,1-.321.224h0a.546.546,0,0,1-.1.009h0a.49.49,0,0,1-.3-.1h0A.521.521,0,0,1,7.8,3.86V3.852h0c0-.05-.006-.108-.006-.167s0-.117.006-.175V3.52c0-.07.006-.143,0-.214Zm3.664,7.746a.941.941,0,0,1-.605.215l-.059,0h-.768c-.571,0-1.215,0-1.713,0l-.056,0H5.717a1.093,1.093,0,0,1-.135-.009h.005a.963.963,0,0,1-.262-.073l.005,0c-.027-.012-.053-.024-.078-.038a.851.851,0,0,1-.45-.681V4.541c0-.012,0-.026,0-.04a.847.847,0,0,1,.432-.729l0,0a.724.724,0,0,1,.073-.038l0,0a.971.971,0,0,1,.4-.086H7.106L7.1,3.717a1.044,1.044,0,0,0-.011.158,1.127,1.127,0,0,0,.274.734l0,0a1.193,1.193,0,0,0,.861.412h0c.024,0,.052,0,.081,0a1.174,1.174,0,0,0,.729-.249h0a1.122,1.122,0,0,0,.456-.894,1.1,1.1,0,0,0-.012-.163v.006l-.01-.071H10.85a1.027,1.027,0,0,1,.25.035h-.007a.854.854,0,0,1,.671.813c0,.013,0,.027,0,.041V8.506c0,.01,0,.023,0,.035s0,.025,0,.037h0v1.783c0,.015,0,.033,0,.051s0,.036,0,.054v0h.006a.831.831,0,0,1-.3.587h0Z" transform="translate(-0.252 -0.167)" fill="#000000" stroke="#000000" stroke-width="0.4"/>
    <path id="Path_122" data-name="Path 122" d="M13.168,11.131H11.133a.269.269,0,0,0,0,.527h2.035a.269.269,0,0,0,0-.527Z" transform="translate(-2.886 -4.598)" fill="#000000" stroke="#000000" stroke-width="0.4"/>
    <path id="Path_123" data-name="Path 123" d="M7.256,11.575a.266.266,0,0,0,.373,0h0l.764-.765a.264.264,0,1,0-.373-.373l-.578.578-.1-.1a.264.264,0,1,0-.373.373h0Z" transform="translate(-1.408 -4.21)" fill="#000000" stroke="#000000" stroke-width="0.4"/>
    <path id="Path_124" data-name="Path 124" d="M13.158,14.839H11.109a.269.269,0,0,0,0,.528h2.058a.269.269,0,0,0,0-.528h-.009Z" transform="translate(-2.874 -6.466)" fill="#000000" stroke="#000000" stroke-width="0.4"/>
    <path id="Path_125" data-name="Path 125" d="M8.019,14.145l-.579.578-.1-.1A.264.264,0,1,0,6.968,15h0l.283.283a.262.262,0,0,0,.187.078.265.265,0,0,0,.179-.07h0l.773-.772a.264.264,0,1,0-.373-.373h0Z" transform="translate(-1.407 -6.077)" fill="#000000" stroke="#000000" stroke-width="0.4"/>
  </g>
</svg>
