<svg xmlns="http://www.w3.org/2000/svg" width="26.001" height="26.001" viewBox="0 0 26.001 26.001">
  <path id="Union_1330" data-name="Union 1330" d="M-7893-3086a13,13,0,0,1,13-13,13,13,0,0,1,13,13,13,13,0,0,1-13,13A13,13,0,0,1-7893-3086Zm2.5,0a10.513,10.513,0,0,0,10.5,10.5,10.513,10.513,0,0,0,10.5-10.5,10.513,10.513,0,0,0-10.5-10.5A10.513,10.513,0,0,0-7890.5-3086Zm11.973,4.128-3.13-3.138a1.25,1.25,0,0,1-.364-.884v-4.669a1.25,1.25,0,0,1,1.25-1.25,1.249,1.249,0,0,1,1.25,1.25v4.154l2.764,2.769a1.251,1.251,0,0,1,0,1.769,1.251,1.251,0,0,1-.882.365A1.249,1.249,0,0,1-7878.528-3081.872Z" transform="translate(7893 3099.001)" fill="#06090f"/>
</svg>
