<svg xmlns="http://www.w3.org/2000/svg" width="19.727" height="16.369" viewBox="0 0 19.727 16.369">
  <g id="Group_48243" data-name="Group 48243" transform="translate(-1166.754 -176.749)">
    <path id="Subtraction_260" data-name="Subtraction 260" d="M17807.168,22789.488h-15.111a2.311,2.311,0,0,1-2.3-2.311v-12.59a1.47,1.47,0,0,1,1.465-1.469h4.969a1.472,1.472,0,0,1,1.471,1.469v1.053h9.512a2.311,2.311,0,0,1,2.311,2.3v9.232A2.314,2.314,0,0,1,17807.168,22789.488Zm-15.791-12.225v9.594a1,1,0,0,0,1,1h14.465a1,1,0,0,0,1-1v-8.592a1,1,0,0,0-1-1h-15.465Z" transform="translate(-16622.998 -22596.369)" fill="#fff"/>
  </g>
</svg>
