<svg id="Group_174352" data-name="Group 174352" xmlns="http://www.w3.org/2000/svg" width="14.107" height="14.139" viewBox="0 0 14.107 14.139">
  <path id="Union_1329" data-name="Union 1329" d="M6.56,14a.983.983,0,0,1-.482-.875l0-6.232-1.2,1.2a.988.988,0,0,1-.669.262A.98.98,0,0,1,3.5,6.705L6.363,3.846a.96.96,0,0,1,.692-.289.99.99,0,0,1,.688.289L7.8,3.9v.01l2.8,2.793a.979.979,0,0,1-.023,1.361.956.956,0,0,1-.692.285.977.977,0,0,1-.664-.262L8.034,6.906v6.219A.97.97,0,0,1,7.556,14a.965.965,0,0,1-1,0ZM.978,1.955A.978.978,0,1,1,.978,0H13.129a.978.978,0,1,1,0,1.955Z" transform="translate(14.107 14.139) rotate(180)" fill="#06090f"/>
</svg>
