<svg xmlns="http://www.w3.org/2000/svg" width="20.273" height="13.857" viewBox="0 0 20.273 13.857">
  <g id="Group_48244" data-name="Group 48244" transform="translate(-1165.863 -134.143)">
    <g id="Group_48244-2" data-name="Group 48244" transform="translate(1165.865 134.141)">
      <path id="Union_1983" data-name="Union 1983" d="M16631.137,22565.719a2,2,0,0,1-2-2v-9.859a1.993,1.993,0,0,1,.627-1.455,1.626,1.626,0,0,1,1.191-.545h16.639a1.621,1.621,0,0,1,1.188.545,1.987,1.987,0,0,1,.629,1.455v9.859a2,2,0,0,1-2,2Zm-.5-2a.5.5,0,0,0,.5.5h16.266a.5.5,0,0,0,.5-.5v-8.018l-7.352,4.727a2.681,2.681,0,0,1-2.57,0l-7.352-4.727Zm.188-10.25a.93.93,0,0,0-.182.453l8.145,5.232a1.215,1.215,0,0,0,.973,0l8.145-5.232a.93.93,0,0,0-.182-.453v0a.5.5,0,0,0-.246-.105h-16.406a.507.507,0,0,0-.246.105Z" transform="translate(-16629.135 -22551.859)" fill="#fff"/>
    </g>
  </g>
</svg>
