<svg xmlns="http://www.w3.org/2000/svg" width="16.617" height="13.896" viewBox="0 0 16.617 13.896">
  <path id="Union_1857" data-name="Union 1857" d="M-1402.535-1151.67a2.341,2.341,0,0,1-.8-1.606c-.065-.7-.127-1.419-.187-2.112-.05-.591-.1-1.2-.158-1.8-.063-.695-.13-1.4-.2-2.085-.037-.384-.075-.77-.111-1.154a2.222,2.222,0,0,1,.283-1.323l0-.006a.765.765,0,0,0,.088-.2.662.662,0,0,0-.024-.157l0-.014a2.457,2.457,0,0,1,.76-2.311,2.126,2.126,0,0,1,1.392-.548c1.368-.017,2.758-.011,3.953,0a2.356,2.356,0,0,1,1.64.733c.218.21.433.428.642.638l.11.111a1.913,1.913,0,0,0,1.415.582h1.328c.868,0,1.765,0,2.647,0a2.262,2.262,0,0,1,2.3,1.736,1.861,1.861,0,0,1,.076.625v.008c-.115,1.274-.233,2.566-.352,3.839-.028.311-.056.622-.083.933-.051.577-.1,1.174-.162,1.761a4.738,4.738,0,0,1-.227,1.467l-.005.014a2.279,2.279,0,0,1-2.26,1.432c-1.238.005-2.5,0-3.715,0h-3.471c-1.039,0-2.115,0-3.173,0-.058,0-.117.007-.176.007A2.344,2.344,0,0,1-1402.535-1151.67Zm1.526-.884h0c3.52,0,7.089,0,10.608,0a.913.913,0,0,0,.913-.825c.1-1.034.194-2.087.284-3.105q.057-.649.115-1.3.035-.393.068-.786c.05-.595.1-1.21.172-1.813l0-.024a.879.879,0,0,0-.186-.778.882.882,0,0,0-.74-.306h-11.876a.86.86,0,0,0-.671.251.859.859,0,0,0-.247.673c.032.432.074.871.114,1.3.017.18.034.359.05.539q.072.783.144,1.568c.112,1.221.229,2.484.34,3.725v.018a.871.871,0,0,0,.266.625.871.871,0,0,0,.634.242Zm-.475-11a.817.817,0,0,0-.742.7,13.744,13.744,0,0,1,2.538-.078c.812-.014,1.637-.011,2.435-.007l.661,0c-.182-.179-.372-.351-.565-.516a.585.585,0,0,0-.338-.108l-.612,0c-.525,0-1.059,0-1.6,0C-1400.3-1163.561-1400.893-1163.558-1401.484-1163.551Z" transform="translate(1404 1165)" fill="#000000"/>
</svg>
