<svg xmlns="http://www.w3.org/2000/svg" data-name="Layer 1" viewBox="0 0 100 125" x="0px" y="0px"><path d="M50,5A45,45,0,1,0,95,50,45.05046,45.05046,0,0,0,50,5Zm0,84A39,39,0,1,1,89,50,39.0439,39.0439,0,0,1,50,89Z"/><path d="M50,41.31915a3.99993,3.99993,0,0,0-4,4V70.42554a4,4,0,0,0,8,0V45.31915A3.99993,3.99993,0,0,0,50,41.31915Z"/><circle cx="50" cy="29.57446" r="4"/><text x="0" y="115" fill="#4895FF" font-size="5px" font-weight="bold" font-family="'Helvetica Neue', Helvetica, Arial-Unicode, Arial, Sans-serif"></text><text x="0" y="120" fill="#4895FF" font-size="5px" font-weight="bold" font-family="'Helvetica Neue', Helvetica, Arial-Unicode, Arial, Sans-serif"></text></svg>