<svg id="microphone" xmlns="http://www.w3.org/2000/svg" width="10.377" height="15.878" viewBox="0 0 10.377 15.878">
  <path id="Union_1988" data-name="Union 1988" d="M16876.014,22797.877h-1.98a.643.643,0,0,1-.48-.193.572.572,0,0,1-.131-.447.581.581,0,0,1,.623-.5h1.568v-1.068l-.1-.018c-.137-.023-.281-.047-.418-.074a5.149,5.149,0,0,1-3.508-2.684,5.044,5.044,0,0,1-.582-2.369.553.553,0,0,1,.531-.578.56.56,0,0,1,.6.51c.016.119.027.246.045.365a4.569,4.569,0,0,0,.125.785,3.861,3.861,0,0,0,2.416,2.666,4.15,4.15,0,0,0,1.516.3,3.981,3.981,0,0,0,2.18-.686,3.931,3.931,0,0,0,1.791-2.816c.012-.107.023-.223.029-.342.006-.1.016-.207.027-.311a.551.551,0,0,1,.539-.475l.016-.006a.572.572,0,0,1,.406.172.561.561,0,0,1,.16.4,5.19,5.19,0,0,1-3.689,4.961c-.223.068-.445.109-.682.16-.08.012-.16.029-.246.047v1.057h1.529a1.147,1.147,0,0,1,.3.041.564.564,0,0,1,.365.611.574.574,0,0,1-.5.48.626.626,0,0,1-.107.006Zm-2.8-6.516a4.1,4.1,0,0,1-.125-.934c-.006-1.561-.018-3.416,0-5.291a3.02,3.02,0,0,1,1.842-2.891,1.685,1.685,0,0,1,.211-.086,3.016,3.016,0,0,1,.99-.16h.057a3.093,3.093,0,0,1,.984.16,2.748,2.748,0,0,1,.539.225,2.969,2.969,0,0,1,1.572,2.723c.018,1.842.012,3.656.006,5.355a3.1,3.1,0,0,1-2.42,3.066,2.693,2.693,0,0,1-.682.08A3.118,3.118,0,0,1,16873.215,22791.361Zm2.73-8.24a1.93,1.93,0,0,0-1.711,1.861c-.018,2.186-.012,3.971,0,5.623a1.95,1.95,0,0,0,1.951,1.865,1.785,1.785,0,0,0,.451-.057,1.937,1.937,0,0,0,1.51-1.918c.006-.617.006-1.246.006-1.854-.006-.279-.006-.561-.006-.846v-.705c.006-.635.006-1.3,0-1.945a2.492,2.492,0,0,0-.068-.582,1.936,1.936,0,0,0-1.9-1.453A1.789,1.789,0,0,0,16875.945,22783.121Z" transform="translate(-16871.002 -22782)" fill="#c0cede"/>
  <path id="Union_1989" data-name="Union 1989" d="M16873.219,22791.359a3.766,3.766,0,0,1-.127-.932c-.012-1.562-.018-3.416,0-5.291a3.019,3.019,0,0,1,1.836-2.889,1.342,1.342,0,0,1,.213-.086,3,3,0,0,1,.988-.16h.059a3.133,3.133,0,0,1,.982.154,2.86,2.86,0,0,1,.539.229,2.984,2.984,0,0,1,1.578,2.723c.012,1.842.006,3.656,0,5.354a3.1,3.1,0,0,1-2.414,3.066,2.669,2.669,0,0,1-.68.086A3.111,3.111,0,0,1,16873.219,22791.359Z" transform="translate(-16870.996 -22782)" fill="#c0cede" opacity="0"/>
</svg>
