<svg xmlns="http://www.w3.org/2000/svg" width="19.313" height="24.166" viewBox="0 0 19.313 24.166">
  <path id="Union_1976" data-name="Union 1976" d="M17083.051,19931.156c-.115-.01-.23-.025-.346-.045a.991.991,0,0,1-.311-.09l-.025-.01c-.02-.006-.045-.021-.074-.031a2.642,2.642,0,0,1-.852-.535c-.094-.084-.189-.18-.279-.264-1.27-1.266-2.566-2.547-3.822-3.787l-1.061-1.041a.8.8,0,0,0-1.25,0c-.41.41-.824.816-1.234,1.221l-.025.025c-1.191,1.176-2.416,2.385-3.617,3.582a7.4,7.4,0,0,1-.645.574,2.1,2.1,0,0,1-1.246.395c-.055,0-.109,0-.17,0h-.006a2.678,2.678,0,0,1-1.08-.32c-.029-.02-.059-.035-.084-.055a1.828,1.828,0,0,1-.666-.73,2.3,2.3,0,0,1-.26-1.076v-19.357a2.145,2.145,0,0,1,.061-.5,2.526,2.526,0,0,1,2.475-2.105h5.629c2.93,0,5.8,0,8.508,0a2.714,2.714,0,0,1,.7.09,2.631,2.631,0,0,1,1.945,2.643v19.076a2.092,2.092,0,0,1-1.16,2.1,3.456,3.456,0,0,1-.561.221l-.01.006a1.223,1.223,0,0,1-.164.025c-.053,0-.105.006-.162.006A1.8,1.8,0,0,1,17083.051,19931.156Zm-5.168-7.338c1.17,1.205,2.391,2.4,3.566,3.551q.735.721,1.5,1.471l.039.041a1.184,1.184,0,0,0,.115.1v-19.168c0-.506-.129-.631-.66-.631H17068.9c-.57,0-.686.111-.686.676v19.123a.9.9,0,0,0,.109-.105l.031-.029c.5-.5,1.01-.99,1.5-1.471,1.18-1.156,2.4-2.346,3.566-3.547a3.133,3.133,0,0,1,4.457-.01Z" transform="translate(-17065.998 -19907.002)" fill="#06090f"/>
</svg>
