<svg xmlns="http://www.w3.org/2000/svg" width="26" height="26.017" viewBox="0 0 26 26.017">
  <path id="Union_1975" data-name="Union 1975" d="M19.465,26.017a1.16,1.16,0,1,1,0-2.32h4.214V19.47a1.16,1.16,0,1,1,2.321,0v5.388a1.159,1.159,0,0,1-1.159,1.16Zm-18.3,0A1.16,1.16,0,0,1,0,24.858V19.47a1.16,1.16,0,1,1,2.321,0V23.7H6.534a1.16,1.16,0,1,1,0,2.32Zm10.787-4.866c-1.743-1.069-3.569-2.168-5.58-3.366a1.306,1.306,0,0,1-.7-1.225c.012-2.156.012-4.381,0-6.618a1.3,1.3,0,0,1,.7-1.221c2.234-1.327,3.943-2.36,5.544-3.342a1.332,1.332,0,0,1,1.536,0c.436.267.876.534,1.732,1.052.966.586,2.368,1.429,3.774,2.267A1.366,1.366,0,0,1,19.7,10c-.012.773-.012,1.562-.008,2.324,0,.318,0,.641,0,.958s0,.625,0,.94c0,.753,0,1.535.008,2.3a1.328,1.328,0,0,1-.707,1.27c-1.622.969-3.342,2.006-5.58,3.365a1.347,1.347,0,0,1-.723.224A1.424,1.424,0,0,1,11.949,21.151Zm5.07-9.1c-1.091.66-2.125,1.28-3.157,1.911a.2.2,0,0,0-.039.091c-.008,1.226-.008,2.436-.008,3.72v.49c.173-.1.345-.2.515-.311,1.044-.628,2.03-1.22,3.016-1.83a.567.567,0,0,0,.074-.26c.012-.851.008-1.723.008-2.565V11.806Zm-9.079.2c0,1.312,0,2.552.008,3.8a.2.2,0,0,0,.047.058c1.037.634,2.066,1.254,3.157,1.909l.4.24c0-.2,0-.4,0-.6,0-1.236,0-2.4-.016-3.581a.432.432,0,0,0-.165-.2c-.864-.532-1.743-1.065-2.6-1.58l-.667-.4c-.051-.032-.106-.063-.165-.093Zm3.8-4.14c-.766.428-1.375.895-2.121,1.323L9,9.791l.365.219c1.127.681,2.191,1.321,3.275,1.968a.342.342,0,0,0,.051.005h.035c1.052-.629,2.089-1.254,3.189-1.914l.452-.274c-.216-.129-.64-.373-.64-.373L13.815,8.271l-1.127-.546a.042.042,0,0,0-.017,0A2.389,2.389,0,0,0,11.745,8.106ZM23.679,6.551V2.324H19.465a1.162,1.162,0,0,1,0-2.324h5.376A1.161,1.161,0,0,1,26,1.163V6.551a1.16,1.16,0,0,1-2.321,0ZM0,6.551V1.163A1.162,1.162,0,0,1,1.162,0H6.534a1.162,1.162,0,1,1,0,2.324H2.321V6.551A1.16,1.16,0,0,1,0,6.551Z" fill="#06090f"/>
</svg>
