<svg xmlns="http://www.w3.org/2000/svg" width="22.843" height="15.428" viewBox="0 0 22.843 15.428">
  <g id="server-line" transform="translate(-2.221 -5.396)">
    <path id="Path_426" data-name="Path 426" d="M10.181,8.4h0a.785.785,0,0,0,.784-.785h0c0-.009,0-.021,0-.033a.755.755,0,0,0-.206-.519h0a.743.743,0,0,0-.528-.242H6.6a.789.789,0,0,0-.787.787v4.552h-2.8a.786.786,0,0,0-.786.784h0a.748.748,0,0,0,.746.744H5.808v4.639a.787.787,0,0,0,.785.786H10.18a.789.789,0,0,0,.788-.786h0c0-.011,0-.022,0-.034a.757.757,0,0,0-.733-.757H7.389V8.4Z" transform="translate(0 0.239)"/>
    <path id="Path_427" data-name="Path 427" d="M22.909,14.352H11.868A.67.67,0,0,0,11.2,15h0v3.637a.7.7,0,0,0,.686.686H22.894a.663.663,0,0,0,.662-.644h0v-3.66a.664.664,0,0,0-.645-.662h0Zm-6.6,2.7v.008a.453.453,0,0,1-.446.454H13.352a.463.463,0,0,1-.463-.446h0V16.53a.451.451,0,0,1,.447-.452h2.521a.433.433,0,0,1,.3.125h0a.448.448,0,0,1,.142.317h0Zm2.022.659a.895.895,0,1,1,.895-.9h0a.9.9,0,0,1-.895.9Zm2.647,0a.9.9,0,0,1-.895-.9h0v-.023a.87.87,0,0,1,.841-.87h.055a.895.895,0,0,1,0,1.789h0Z" transform="translate(1.509 1.504)"/>
    <path id="Path_428" data-name="Path 428" d="M23.372,5.6a.666.666,0,0,0-.461-.207H11.869a.67.67,0,0,0-.666.644h0V9.678a.7.7,0,0,0,.686.686h11a.664.664,0,0,0,.663-.644h0V6.063a.671.671,0,0,0-.183-.46ZM16.3,8.1V8.1a.453.453,0,0,1-.446.454H13.345a.455.455,0,0,1-.456-.447V7.579a.455.455,0,0,1,.446-.456h2.533a.4.4,0,0,1,.292.126h0a.448.448,0,0,1,.142.317h0Zm2.022.659a.895.895,0,1,1,.895-.895h0a.9.9,0,0,1-.895.895Zm2.647,0a.9.9,0,0,1-.895-.895h0V7.836a.871.871,0,0,1,.84-.87h.056a.895.895,0,0,1,0,1.789h0Z" transform="translate(1.509 0)"/>
  </g>
</svg>
