<svg xmlns="http://www.w3.org/2000/svg" xmlns:xlink="http://www.w3.org/1999/xlink" width="22.668" height="24.937" viewBox="0 0 22.668 24.937">
  <defs>
    <clipPath id="clip-path">
      <rect id="Rectangle_11160" data-name="Rectangle 11160" width="22.668" height="24.937" fill="#06090f"/>
    </clipPath>
  </defs>
  <g id="Group_174094" data-name="Group 174094" transform="translate(0 0)">
    <g id="Group_18176" data-name="Group 18176" transform="translate(0 0)">
      <g id="Group_18175" data-name="Group 18175" clip-path="url(#clip-path)">
        <path id="Path_19655" data-name="Path 19655" d="M172.791,213.839a2.788,2.788,0,0,1-1.8-.839q-2.687-2.647-5.36-5.309a1.3,1.3,0,0,1-.315-.535c-.367-1.258-.712-2.523-1.071-3.783a.977.977,0,0,1,.239-1.032,1,1,0,0,1,1.07-.225c1.245.374,2.492.741,3.733,1.127a1.33,1.33,0,0,1,.517.31c1.805,1.774,3.618,3.541,5.394,5.343a2.755,2.755,0,0,1,.6,3.152,3.026,3.026,0,0,1-3,1.791m-6.173-9.353c.174.617.329,1.186.5,1.751a.907.907,0,0,0,.213.367q1.628,1.626,3.269,3.24c.061.06.126.117.162.15l1.391-1.379c-1.17-1.148-2.358-2.315-3.547-3.48a.372.372,0,0,0-.141-.094c-.6-.183-1.2-.361-1.848-.554m5.6,6.953a1.026,1.026,0,0,0,1.105.409.91.91,0,0,0,.7-.735.969.969,0,0,0-.436-1.031l-1.37,1.356" transform="translate(-153.376 -188.911)" fill="#06090f"/>
      </g>
    </g>
    <g id="Group_18178" data-name="Group 18178" transform="translate(0 0)">
      <g id="Group_174101" data-name="Group 174101" transform="translate(0 0)">
        <path id="Path_19656" data-name="Path 19656" d="M9.287,22.976c-1.734.022-3.468.009-5.2,0a1.985,1.985,0,0,1-2.114-1.842,1.948,1.948,0,0,1,0-.248V6.454a1.976,1.976,0,0,1,1.88-2.071,2.015,2.015,0,0,1,.222,0H7.059a3.043,3.043,0,0,0,.646,2.324A2.913,2.913,0,0,0,9.852,7.789a2.86,2.86,0,0,0,2.012-.644,3.01,3.01,0,0,0,1.1-2.75c.073,0,.113-.01.147-.01h2.931a2.174,2.174,0,0,1,.534.077,1.944,1.944,0,0,1,1.466,1.957v4.113a1.485,1.485,0,0,0,.04.408.988.988,0,0,0,1.22.669.976.976,0,0,0,.715-.949V6.375a4.635,4.635,0,0,0-.044-.6,3.913,3.913,0,0,0-3.849-3.334H12.967V.966A.962.962,0,0,0,12.008,0h-4A.953.953,0,0,0,7.05.922V2.43H3.932A3.919,3.919,0,0,0,.147,5.284c-.053.185-.1.373-.147.56V21.522c.042.171.076.344.128.512A3.881,3.881,0,0,0,3.34,24.891a.585.585,0,0,1,.111.045H9.665c.01-.012.019-.03.031-.035a.973.973,0,0,0,.692-1.119,1.033,1.033,0,0,0-1.1-.8M9.026,1.956h1.946c0,.068.018.129.018.191V4.8a.971.971,0,0,1-.759,1.006.954.954,0,0,1-1.166-.666.935.935,0,0,1-.03-.175c-.031-1-.009-1.993-.009-3.009" transform="translate(0 0.001)" fill="#06090f"/>
      </g>
    </g>
  </g>
</svg>
