<svg xmlns="http://www.w3.org/2000/svg" xmlns:xlink="http://www.w3.org/1999/xlink" width="20.464" height="25.003" viewBox="0 0 20.464 25.003">
  <defs>
    <clipPath id="clip-path">
      <rect id="Rectangle_11273" data-name="Rectangle 11273" width="20.464" height="25.003" fill="#06090f"/>
    </clipPath>
  </defs>
  <g id="Group_12729" data-name="Group 12729" clip-path="url(#clip-path)">
    <path id="Path_19754" data-name="Path 19754" d="M20.317,5.3A4,4,0,0,0,16.443,2.44H14.4v0H13.257V.969a.975.975,0,0,0-.99-.959Q10.225,0,8.185,0a.964.964,0,0,0-.977.923V2.44H4.021a4.082,4.082,0,0,0-2.8,1.1A3.858,3.858,0,0,0,.147,5.3h0l-.008.03A3.976,3.976,0,0,0,0,6.38V21.3l0,0a2.951,2.951,0,0,0,.125.791l0,0a3.785,3.785,0,0,0,.191.546,3.892,3.892,0,0,0,1.461,1.706q.12.078.247.147a4.061,4.061,0,0,0,1.031.391c.116.027.234.051.354.068h0c.024.007.1.015.169.024A2.309,2.309,0,0,0,3.9,25H16.732a1.4,1.4,0,0,0,.316-.044h0A4.4,4.4,0,0,0,20.364,22a2.147,2.147,0,0,0,.1-.646V6.371A4,4,0,0,0,20.317,5.3M9.225,1.962h1.983c0,.067.018.13.018.192v2.66a1.01,1.01,0,0,1-1.97.34.909.909,0,0,1-.031-.176c-.032-1,0-2,0-3.015m9.223,19.225a2.016,2.016,0,0,1-2.161,1.847h-.85l-.163,0c-1.646,0-3.635.016-5.093,0v.008H9.806l-2.59,0H5.557l-1.38,0a2.116,2.116,0,0,1-.413-.015,2.079,2.079,0,0,1-.573-.164q-.089-.04-.174-.088a1.965,1.965,0,0,1-1-1.579c0-.021,0-.041,0-.062q0-.061,0-.123c0-.021,0-.042,0-.063V6.469a1.91,1.91,0,0,1,.051-.552,1.981,1.981,0,0,1,.918-1.234c.056-.033.114-.064.173-.092a2.1,2.1,0,0,1,1-.2H7.21a3,3,0,0,0,2.858,3.416,2.963,2.963,0,0,0,2.056-.646,2.988,2.988,0,0,0,1.127-2.754h3.155a2.27,2.27,0,0,1,.545.077A1.955,1.955,0,0,1,18.443,6.45v9.877a1.475,1.475,0,0,0,0,.188v4.424a1.917,1.917,0,0,1,0,.248" transform="translate(0)" fill="#06090f"/>
    <path id="Path_19755" data-name="Path 19755" d="M79.714,97.073H73.32a.813.813,0,1,0,0,1.625h6.394a.813.813,0,1,0,0-1.625" transform="translate(-63.794 -85.809)" fill="#06090f"/>
    <path id="Path_19756" data-name="Path 19756" d="M30.664,92.166a.858.858,0,0,0,1.186,0l1.965-1.9a.794.794,0,0,0,0-1.149.859.859,0,0,0-1.186,0l-1.372,1.328-.136-.132a.859.859,0,0,0-1.186,0,.794.794,0,0,0,0,1.149Z" transform="translate(-26.131 -78.564)" fill="#06090f"/>
    <path id="Path_19757" data-name="Path 19757" d="M79.714,136.536H73.32a.813.813,0,1,0,0,1.625h6.394a.813.813,0,1,0,0-1.625" transform="translate(-63.794 -120.692)" fill="#06090f"/>
    <path id="Path_19758" data-name="Path 19758" d="M32.628,128.578l-1.372,1.328-.136-.132a.859.859,0,0,0-1.186,0,.794.794,0,0,0,0,1.149l.729.706a.859.859,0,0,0,1.187,0l1.965-1.9a.794.794,0,0,0,0-1.149.859.859,0,0,0-1.187,0" transform="translate(-26.13 -113.447)" fill="#06090f"/>
  </g>
</svg>
