<svg id="Group_41902" data-name="Group 41902" xmlns="http://www.w3.org/2000/svg" width="14.826" height="19.764" viewBox="0 0 14.826 19.764">
  <path id="Path_3270" data-name="Path 3270" d="M2.25,10.786a.609.609,0,0,1,.6-.615H5.259a.615.615,0,0,1,0,1.23H2.852a.609.609,0,0,1-.6-.615m0-2.461a.609.609,0,0,1,.6-.615H8.87a.615.615,0,0,1,0,1.23H2.852a.609.609,0,0,1-.6-.615m0-2.461a.609.609,0,0,1,.6-.615H8.87a.615.615,0,0,1,0,1.23H2.852a.609.609,0,0,1-.6-.615" transform="translate(1.628 3.053)" fill="#fff" fill-rule="evenodd"/>
  <g id="Group_5418" data-name="Group 5418">
    <path id="Union_54" data-name="Union 54" d="M2.473,19.764A2.472,2.472,0,0,1,0,17.3V2.469A2.471,2.471,0,0,1,2.473,0H9.266V1.233H2.473A1.237,1.237,0,0,0,1.235,2.469V17.3a1.236,1.236,0,0,0,1.238,1.233h9.879A1.232,1.232,0,0,0,13.586,17.3V5.558H11.118A1.852,1.852,0,0,1,9.266,3.7V0l5.56,5.558V17.3a2.472,2.472,0,0,1-2.473,2.469Z" fill="#fff"/>
  </g>
</svg>
