<svg xmlns="http://www.w3.org/2000/svg" width="17.22" height="16" viewBox="0 0 17.22 16">
  <path id="Union_1678" data-name="Union 1678" d="M6.681,15.909a.845.845,0,0,1-.5-.811V11.549c0-.668,0-1.355,0-2.033A.266.266,0,0,0,6.1,9.3c-1.38-1.487-2.785-3-4.141-4.465L.557,3.323a2.023,2.023,0,0,1-.5-1.865A1.9,1.9,0,0,1,1.32.124,2.353,2.353,0,0,1,2.083.007C3.393,0,4.7,0,5.691,0L8.676,0c1.254,0,2.512,0,3.765,0q1.389,0,2.776,0A2.023,2.023,0,0,1,16.676.61a1.892,1.892,0,0,1,.541,1.438A1.913,1.913,0,0,1,16.676,3.3c-.475.517-.954,1.033-1.433,1.551-1.323,1.427-2.7,2.91-4.047,4.36a.555.555,0,0,0-.173.431c.007.563.007,1.133.007,1.689V12.6a.978.978,0,0,1-.4.835C9.922,13.993,9.2,14.555,8.5,15.1c-.263.21-.524.418-.79.623-.033.025-.066.049-.094.073a.944.944,0,0,1-.561.2A.853.853,0,0,1,6.681,15.909ZM1.763,1.868c-.034.076-.05.152.118.33Q3.166,3.592,4.453,4.983,6.044,6.7,7.631,8.411a1.078,1.078,0,0,1,.3.768c0,.755,0,1.527,0,2.271v1.9c.439-.345.89-.7,1.332-1.061a.171.171,0,0,0,.013-.044c.007-1.218.007-2.163,0-3.055a1.132,1.132,0,0,1,.311-.8c1.462-1.572,2.941-3.171,4.37-4.719l1.2-1.294c.02-.024.044-.048.065-.068.041-.048.091-.1.136-.149.14-.141.114-.224.082-.3s-.082-.148-.3-.148q-3.176,0-6.349,0-3.35,0-6.693,0C1.847,1.716,1.8,1.784,1.763,1.868Z" fill="#06090f"/>
</svg>
